<?xml version="1.0" encoding="UTF-8" standalone="no"?>
<!DOCTYPE svg PUBLIC "-//W3C//DTD SVG 1.1//EN"
 "http://www.w3.org/Graphics/SVG/1.1/DTD/svg11.dtd">
<!-- Generated by graphviz version 2.47.0 (20210316.0004)
 -->
<!-- Title: dependencies Pages: 1 -->
<svg width="504pt" height="211pt"
 viewBox="0.00 0.00 504.00 211.00" xmlns="http://www.w3.org/2000/svg" xmlns:xlink="http://www.w3.org/1999/xlink">
<g id="graph0" class="graph" transform="scale(1 1) rotate(0) translate(4 207)">
<title>dependencies</title>
<polygon fill="white" stroke="transparent" points="-4,4 -4,-207 500,-207 500,4 -4,4"/>
<text text-anchor="start" x="227.01" y="-42.4" font-family="Times-12" font-weight="bold" font-size="14.00">Legend</text>
<polygon fill="#ffffb3" stroke="transparent" points="14,-10 14,-30 34,-30 34,-10 14,-10"/>
<text text-anchor="start" x="37.63" y="-15.4" font-family="Times-12" font-size="14.00"> &#160;Declarations</text>
<polygon fill="#8dd3c7" stroke="transparent" points="127,-10 127,-30 147,-30 147,-10 127,-10"/>
<text text-anchor="start" x="150.73" y="-15.4" font-family="Times-12" font-size="14.00"> &#160;Module</text>
<polygon fill="#80b1d3" stroke="transparent" points="213,-10 213,-30 233,-30 233,-10 213,-10"/>
<text text-anchor="start" x="236.78" y="-15.4" font-family="Times-12" font-size="14.00"> &#160;Bootstrap</text>
<polygon fill="#fdb462" stroke="transparent" points="310,-10 310,-30 330,-30 330,-10 310,-10"/>
<text text-anchor="start" x="333.67" y="-15.4" font-family="Times-12" font-size="14.00"> &#160;Providers</text>
<polygon fill="#fb8072" stroke="transparent" points="406,-10 406,-30 426,-30 426,-10 406,-10"/>
<text text-anchor="start" x="429.73" y="-15.4" font-family="Times-12" font-size="14.00"> &#160;Exports</text>
<g id="clust1" class="cluster">
<title>cluster_LoanModule</title>
<polygon fill="none" stroke="black" stroke-dasharray="1,5" points="90,-70 90,-195 406,-195 406,-70 90,-70"/>
</g>
<g id="clust2" class="cluster">
<title>cluster_LoanModule_declarations</title>
<polygon fill="none" stroke="black" points="98,-78 98,-130 398,-130 398,-78 98,-78"/>
</g>
<!-- LoanEditComponent -->
<g id="node1" class="node">
<title>LoanEditComponent</title>
<polygon fill="#ffffb3" stroke="black" points="389.93,-122 256.07,-122 256.07,-86 389.93,-86 389.93,-122"/>
<text text-anchor="middle" x="323" y="-99.8" font-family="Times,serif" font-size="14.00">LoanEditComponent</text>
</g>
<!-- LoanModule -->
<g id="node3" class="node">
<title>LoanModule</title>
<polygon fill="#8dd3c7" stroke="black" points="291.32,-187 288.32,-191 267.32,-191 264.32,-187 202.68,-187 202.68,-151 291.32,-151 291.32,-187"/>
<text text-anchor="middle" x="247" y="-164.8" font-family="Times,serif" font-size="14.00">LoanModule</text>
</g>
<!-- LoanEditComponent&#45;&gt;LoanModule -->
<g id="edge1" class="edge">
<title>LoanEditComponent&#45;&gt;LoanModule</title>
<path fill="none" stroke="black" d="M273.72,-122.11C273.72,-122.11 273.72,-140.99 273.72,-140.99"/>
<polygon fill="black" stroke="black" points="270.22,-140.99 273.72,-150.99 277.22,-140.99 270.22,-140.99"/>
</g>
<!-- LoanListComponent -->
<g id="node2" class="node">
<title>LoanListComponent</title>
<polygon fill="#ffffb3" stroke="black" points="237.88,-122 106.12,-122 106.12,-86 237.88,-86 237.88,-122"/>
<text text-anchor="middle" x="172" y="-99.8" font-family="Times,serif" font-size="14.00">LoanListComponent</text>
</g>
<!-- LoanListComponent&#45;&gt;LoanModule -->
<g id="edge2" class="edge">
<title>LoanListComponent&#45;&gt;LoanModule</title>
<path fill="none" stroke="black" d="M220.39,-122.11C220.39,-122.11 220.39,-140.99 220.39,-140.99"/>
<polygon fill="black" stroke="black" points="216.89,-140.99 220.39,-150.99 223.89,-140.99 216.89,-140.99"/>
</g>
</g>
</svg>
