<?xml version="1.0" encoding="UTF-8" standalone="no"?>
<!DOCTYPE svg PUBLIC "-//W3C//DTD SVG 1.1//EN"
 "http://www.w3.org/Graphics/SVG/1.1/DTD/svg11.dtd">
<!-- Generated by graphviz version 2.47.0 (20210316.0004)
 -->
<!-- Title: dependencies Pages: 1 -->
<svg width="504pt" height="211pt"
 viewBox="0.00 0.00 504.00 211.00" xmlns="http://www.w3.org/2000/svg" xmlns:xlink="http://www.w3.org/1999/xlink">
<g id="graph0" class="graph" transform="scale(1 1) rotate(0) translate(4 207)">
<title>dependencies</title>
<polygon fill="white" stroke="transparent" points="-4,4 -4,-207 500,-207 500,4 -4,4"/>
<text text-anchor="start" x="227.01" y="-42.4" font-family="Times-12" font-weight="bold" font-size="14.00">Legend</text>
<polygon fill="#ffffb3" stroke="transparent" points="14,-10 14,-30 34,-30 34,-10 14,-10"/>
<text text-anchor="start" x="37.63" y="-15.4" font-family="Times-12" font-size="14.00"> &#160;Declarations</text>
<polygon fill="#8dd3c7" stroke="transparent" points="127,-10 127,-30 147,-30 147,-10 127,-10"/>
<text text-anchor="start" x="150.73" y="-15.4" font-family="Times-12" font-size="14.00"> &#160;Module</text>
<polygon fill="#80b1d3" stroke="transparent" points="213,-10 213,-30 233,-30 233,-10 213,-10"/>
<text text-anchor="start" x="236.78" y="-15.4" font-family="Times-12" font-size="14.00"> &#160;Bootstrap</text>
<polygon fill="#fdb462" stroke="transparent" points="310,-10 310,-30 330,-30 330,-10 310,-10"/>
<text text-anchor="start" x="333.67" y="-15.4" font-family="Times-12" font-size="14.00"> &#160;Providers</text>
<polygon fill="#fb8072" stroke="transparent" points="406,-10 406,-30 426,-30 426,-10 406,-10"/>
<text text-anchor="start" x="429.73" y="-15.4" font-family="Times-12" font-size="14.00"> &#160;Exports</text>
<g id="clust1" class="cluster">
<title>cluster_AuthorModule</title>
<polygon fill="none" stroke="black" stroke-dasharray="1,5" points="79.5,-70 79.5,-195 416.5,-195 416.5,-70 79.5,-70"/>
</g>
<g id="clust2" class="cluster">
<title>cluster_AuthorModule_declarations</title>
<polygon fill="none" stroke="black" points="87.5,-78 87.5,-130 408.5,-130 408.5,-78 87.5,-78"/>
</g>
<!-- AuthorEditComponent -->
<g id="node1" class="node">
<title>AuthorEditComponent</title>
<polygon fill="#ffffb3" stroke="black" points="400.82,-122 256.18,-122 256.18,-86 400.82,-86 400.82,-122"/>
<text text-anchor="middle" x="328.5" y="-99.8" font-family="Times,serif" font-size="14.00">AuthorEditComponent</text>
</g>
<!-- AuthorModule -->
<g id="node3" class="node">
<title>AuthorModule</title>
<polygon fill="#8dd3c7" stroke="black" points="297.21,-187 294.21,-191 273.21,-191 270.21,-187 197.79,-187 197.79,-151 297.21,-151 297.21,-187"/>
<text text-anchor="middle" x="247.5" y="-164.8" font-family="Times,serif" font-size="14.00">AuthorModule</text>
</g>
<!-- AuthorEditComponent&#45;&gt;AuthorModule -->
<g id="edge1" class="edge">
<title>AuthorEditComponent&#45;&gt;AuthorModule</title>
<path fill="none" stroke="black" d="M276.72,-122.11C276.72,-122.11 276.72,-140.99 276.72,-140.99"/>
<polygon fill="black" stroke="black" points="273.22,-140.99 276.72,-150.99 280.22,-140.99 273.22,-140.99"/>
</g>
<!-- AuthorListComponent -->
<g id="node2" class="node">
<title>AuthorListComponent</title>
<polygon fill="#ffffb3" stroke="black" points="237.77,-122 95.23,-122 95.23,-86 237.77,-86 237.77,-122"/>
<text text-anchor="middle" x="166.5" y="-99.8" font-family="Times,serif" font-size="14.00">AuthorListComponent</text>
</g>
<!-- AuthorListComponent&#45;&gt;AuthorModule -->
<g id="edge2" class="edge">
<title>AuthorListComponent&#45;&gt;AuthorModule</title>
<path fill="none" stroke="black" d="M217.89,-122.11C217.89,-122.11 217.89,-140.99 217.89,-140.99"/>
<polygon fill="black" stroke="black" points="214.39,-140.99 217.89,-150.99 221.39,-140.99 214.39,-140.99"/>
</g>
</g>
</svg>
