<?xml version="1.0" encoding="UTF-8" standalone="no"?>
<!DOCTYPE svg PUBLIC "-//W3C//DTD SVG 1.1//EN"
 "http://www.w3.org/Graphics/SVG/1.1/DTD/svg11.dtd">
<!-- Generated by graphviz version 2.47.0 (20210316.0004)
 -->
<!-- Title: dependencies Pages: 1 -->
<svg width="506pt" height="211pt"
 viewBox="0.00 0.00 506.00 211.00" xmlns="http://www.w3.org/2000/svg" xmlns:xlink="http://www.w3.org/1999/xlink">
<g id="graph0" class="graph" transform="scale(1 1) rotate(0) translate(4 207)">
<title>dependencies</title>
<polygon fill="white" stroke="transparent" points="-4,4 -4,-207 502,-207 502,4 -4,4"/>
<text text-anchor="start" x="228.01" y="-42.4" font-family="Times-12" font-weight="bold" font-size="14.00">Legend</text>
<polygon fill="#ffffb3" stroke="transparent" points="15,-10 15,-30 35,-30 35,-10 15,-10"/>
<text text-anchor="start" x="38.63" y="-15.4" font-family="Times-12" font-size="14.00"> &#160;Declarations</text>
<polygon fill="#8dd3c7" stroke="transparent" points="128,-10 128,-30 148,-30 148,-10 128,-10"/>
<text text-anchor="start" x="151.73" y="-15.4" font-family="Times-12" font-size="14.00"> &#160;Module</text>
<polygon fill="#80b1d3" stroke="transparent" points="214,-10 214,-30 234,-30 234,-10 214,-10"/>
<text text-anchor="start" x="237.78" y="-15.4" font-family="Times-12" font-size="14.00"> &#160;Bootstrap</text>
<polygon fill="#fdb462" stroke="transparent" points="311,-10 311,-30 331,-30 331,-10 311,-10"/>
<text text-anchor="start" x="334.67" y="-15.4" font-family="Times-12" font-size="14.00"> &#160;Providers</text>
<polygon fill="#fb8072" stroke="transparent" points="407,-10 407,-30 427,-30 427,-10 407,-10"/>
<text text-anchor="start" x="430.73" y="-15.4" font-family="Times-12" font-size="14.00"> &#160;Exports</text>
<g id="clust1" class="cluster">
<title>cluster_GameModule</title>
<polygon fill="none" stroke="black" stroke-dasharray="1,5" points="8,-70 8,-195 490,-195 490,-70 8,-70"/>
</g>
<g id="clust2" class="cluster">
<title>cluster_GameModule_declarations</title>
<polygon fill="none" stroke="black" points="16,-78 16,-130 482,-130 482,-78 16,-78"/>
</g>
<!-- GameEditComponent -->
<g id="node1" class="node">
<title>GameEditComponent</title>
<polygon fill="#ffffb3" stroke="black" points="474.09,-122 335.91,-122 335.91,-86 474.09,-86 474.09,-122"/>
<text text-anchor="middle" x="405" y="-99.8" font-family="Times,serif" font-size="14.00">GameEditComponent</text>
</g>
<!-- GameModule -->
<g id="node4" class="node">
<title>GameModule</title>
<polygon fill="#8dd3c7" stroke="black" points="294.48,-187 291.48,-191 270.48,-191 267.48,-187 201.52,-187 201.52,-151 294.48,-151 294.48,-187"/>
<text text-anchor="middle" x="248" y="-164.8" font-family="Times,serif" font-size="14.00">GameModule</text>
</g>
<!-- GameEditComponent&#45;&gt;GameModule -->
<g id="edge1" class="edge">
<title>GameEditComponent&#45;&gt;GameModule</title>
<path fill="none" stroke="black" d="M405,-122.11C405,-141.34 405,-169 405,-169 405,-169 304.68,-169 304.68,-169"/>
<polygon fill="black" stroke="black" points="304.68,-165.5 294.68,-169 304.68,-172.5 304.68,-165.5"/>
</g>
<!-- GameItemComponent -->
<g id="node2" class="node">
<title>GameItemComponent</title>
<polygon fill="#ffffb3" stroke="black" points="318.42,-122 177.58,-122 177.58,-86 318.42,-86 318.42,-122"/>
<text text-anchor="middle" x="248" y="-99.8" font-family="Times,serif" font-size="14.00">GameItemComponent</text>
</g>
<!-- GameItemComponent&#45;&gt;GameModule -->
<g id="edge2" class="edge">
<title>GameItemComponent&#45;&gt;GameModule</title>
<path fill="none" stroke="black" d="M248,-122.11C248,-122.11 248,-140.99 248,-140.99"/>
<polygon fill="black" stroke="black" points="244.5,-140.99 248,-150.99 251.5,-140.99 244.5,-140.99"/>
</g>
<!-- GameListComponent -->
<g id="node3" class="node">
<title>GameListComponent</title>
<polygon fill="#ffffb3" stroke="black" points="160.04,-122 23.96,-122 23.96,-86 160.04,-86 160.04,-122"/>
<text text-anchor="middle" x="92" y="-99.8" font-family="Times,serif" font-size="14.00">GameListComponent</text>
</g>
<!-- GameListComponent&#45;&gt;GameModule -->
<g id="edge3" class="edge">
<title>GameListComponent&#45;&gt;GameModule</title>
<path fill="none" stroke="black" d="M92,-122.11C92,-141.34 92,-169 92,-169 92,-169 191.19,-169 191.19,-169"/>
<polygon fill="black" stroke="black" points="191.19,-172.5 201.19,-169 191.19,-165.5 191.19,-172.5"/>
</g>
</g>
</svg>
