<?xml version="1.0" encoding="UTF-8" standalone="no"?>
<!DOCTYPE svg PUBLIC "-//W3C//DTD SVG 1.1//EN"
 "http://www.w3.org/Graphics/SVG/1.1/DTD/svg11.dtd">
<!-- Generated by graphviz version 2.47.0 (20210316.0004)
 -->
<!-- Title: dependencies Pages: 1 -->
<svg width="504pt" height="211pt"
 viewBox="0.00 0.00 504.00 211.00" xmlns="http://www.w3.org/2000/svg" xmlns:xlink="http://www.w3.org/1999/xlink">
<g id="graph0" class="graph" transform="scale(1 1) rotate(0) translate(4 207)">
<title>dependencies</title>
<polygon fill="white" stroke="transparent" points="-4,4 -4,-207 500,-207 500,4 -4,4"/>
<text text-anchor="start" x="227.01" y="-42.4" font-family="Times-12" font-weight="bold" font-size="14.00">Legend</text>
<polygon fill="#ffffb3" stroke="transparent" points="14,-10 14,-30 34,-30 34,-10 14,-10"/>
<text text-anchor="start" x="37.63" y="-15.4" font-family="Times-12" font-size="14.00"> &#160;Declarations</text>
<polygon fill="#8dd3c7" stroke="transparent" points="127,-10 127,-30 147,-30 147,-10 127,-10"/>
<text text-anchor="start" x="150.73" y="-15.4" font-family="Times-12" font-size="14.00"> &#160;Module</text>
<polygon fill="#80b1d3" stroke="transparent" points="213,-10 213,-30 233,-30 233,-10 213,-10"/>
<text text-anchor="start" x="236.78" y="-15.4" font-family="Times-12" font-size="14.00"> &#160;Bootstrap</text>
<polygon fill="#fdb462" stroke="transparent" points="310,-10 310,-30 330,-30 330,-10 310,-10"/>
<text text-anchor="start" x="333.67" y="-15.4" font-family="Times-12" font-size="14.00"> &#160;Providers</text>
<polygon fill="#fb8072" stroke="transparent" points="406,-10 406,-30 426,-30 426,-10 406,-10"/>
<text text-anchor="start" x="429.73" y="-15.4" font-family="Times-12" font-size="14.00"> &#160;Exports</text>
<g id="clust1" class="cluster">
<title>cluster_CategoryModule</title>
<polygon fill="none" stroke="black" stroke-dasharray="1,5" points="68,-70 68,-195 428,-195 428,-70 68,-70"/>
</g>
<g id="clust2" class="cluster">
<title>cluster_CategoryModule_declarations</title>
<polygon fill="none" stroke="black" points="76,-78 76,-130 420,-130 420,-78 76,-78"/>
</g>
<!-- CategoryEditComponent -->
<g id="node1" class="node">
<title>CategoryEditComponent</title>
<polygon fill="#ffffb3" stroke="black" points="411.98,-122 256.02,-122 256.02,-86 411.98,-86 411.98,-122"/>
<text text-anchor="middle" x="334" y="-99.8" font-family="Times,serif" font-size="14.00">CategoryEditComponent</text>
</g>
<!-- CategoryModule -->
<g id="node3" class="node">
<title>CategoryModule</title>
<polygon fill="#8dd3c7" stroke="black" points="302.37,-187 299.37,-191 278.37,-191 275.37,-187 191.63,-187 191.63,-151 302.37,-151 302.37,-187"/>
<text text-anchor="middle" x="247" y="-164.8" font-family="Times,serif" font-size="14.00">CategoryModule</text>
</g>
<!-- CategoryEditComponent&#45;&gt;CategoryModule -->
<g id="edge1" class="edge">
<title>CategoryEditComponent&#45;&gt;CategoryModule</title>
<path fill="none" stroke="black" d="M279.22,-122.11C279.22,-122.11 279.22,-140.99 279.22,-140.99"/>
<polygon fill="black" stroke="black" points="275.72,-140.99 279.22,-150.99 282.72,-140.99 275.72,-140.99"/>
</g>
<!-- CategoryListComponent -->
<g id="node2" class="node">
<title>CategoryListComponent</title>
<polygon fill="#ffffb3" stroke="black" points="238.43,-122 83.57,-122 83.57,-86 238.43,-86 238.43,-122"/>
<text text-anchor="middle" x="161" y="-99.8" font-family="Times,serif" font-size="14.00">CategoryListComponent</text>
</g>
<!-- CategoryListComponent&#45;&gt;CategoryModule -->
<g id="edge2" class="edge">
<title>CategoryListComponent&#45;&gt;CategoryModule</title>
<path fill="none" stroke="black" d="M214.89,-122.11C214.89,-122.11 214.89,-140.99 214.89,-140.99"/>
<polygon fill="black" stroke="black" points="211.39,-140.99 214.89,-150.99 218.39,-140.99 211.39,-140.99"/>
</g>
</g>
</svg>
