<?xml version="1.0" encoding="UTF-8" standalone="no"?>
<!DOCTYPE svg PUBLIC "-//W3C//DTD SVG 1.1//EN"
 "http://www.w3.org/Graphics/SVG/1.1/DTD/svg11.dtd">
<!-- Generated by graphviz version 2.47.0 (20210316.0004)
 -->
<!-- Title: dependencies Pages: 1 -->
<svg width="994pt" height="284pt"
 viewBox="0.00 0.00 994.00 284.00" xmlns="http://www.w3.org/2000/svg" xmlns:xlink="http://www.w3.org/1999/xlink">
<g id="graph0" class="graph" transform="scale(1 1) rotate(0) translate(4 280)">
<title>dependencies</title>
<polygon fill="white" stroke="transparent" points="-4,4 -4,-280 990,-280 990,4 -4,4"/>
<text text-anchor="start" x="472.01" y="-42.4" font-family="Times-12" font-weight="bold" font-size="14.00">Legend</text>
<polygon fill="#ffffb3" stroke="transparent" points="259,-10 259,-30 279,-30 279,-10 259,-10"/>
<text text-anchor="start" x="282.63" y="-15.4" font-family="Times-12" font-size="14.00"> &#160;Declarations</text>
<polygon fill="#8dd3c7" stroke="transparent" points="372,-10 372,-30 392,-30 392,-10 372,-10"/>
<text text-anchor="start" x="395.73" y="-15.4" font-family="Times-12" font-size="14.00"> &#160;Module</text>
<polygon fill="#80b1d3" stroke="transparent" points="458,-10 458,-30 478,-30 478,-10 458,-10"/>
<text text-anchor="start" x="481.78" y="-15.4" font-family="Times-12" font-size="14.00"> &#160;Bootstrap</text>
<polygon fill="#fdb462" stroke="transparent" points="555,-10 555,-30 575,-30 575,-10 555,-10"/>
<text text-anchor="start" x="578.67" y="-15.4" font-family="Times-12" font-size="14.00"> &#160;Providers</text>
<polygon fill="#fb8072" stroke="transparent" points="651,-10 651,-30 671,-30 671,-10 651,-10"/>
<text text-anchor="start" x="674.73" y="-15.4" font-family="Times-12" font-size="14.00"> &#160;Exports</text>
<g id="clust1" class="cluster">
<title>cluster_AppModule</title>
<polygon fill="none" stroke="black" stroke-dasharray="1,5" points="8,-70 8,-268 978,-268 978,-70 8,-70"/>
</g>
<g id="clust6" class="cluster">
<title>cluster_AppModule_bootstrap</title>
<polygon fill="none" stroke="black" points="407,-208 407,-260 531,-260 531,-208 407,-208"/>
</g>
<g id="clust4" class="cluster">
<title>cluster_AppModule_imports</title>
<polygon fill="none" stroke="black" points="146,-78 146,-130 970,-130 970,-78 146,-78"/>
</g>
<g id="clust2" class="cluster">
<title>cluster_AppModule_declarations</title>
<polygon fill="none" stroke="black" points="16,-78 16,-130 138,-130 138,-78 16,-78"/>
</g>
<!-- AppComponent -->
<g id="node1" class="node">
<title>AppComponent</title>
<polygon fill="#ffffb3" stroke="black" points="129.94,-122 24.06,-122 24.06,-86 129.94,-86 129.94,-122"/>
<text text-anchor="middle" x="77" y="-99.8" font-family="Times,serif" font-size="14.00">AppComponent</text>
</g>
<!-- AppModule -->
<g id="node2" class="node">
<title>AppModule</title>
<polygon fill="#8dd3c7" stroke="black" points="510.66,-187 507.66,-191 486.66,-191 483.66,-187 427.34,-187 427.34,-151 510.66,-151 510.66,-187"/>
<text text-anchor="middle" x="469" y="-164.8" font-family="Times,serif" font-size="14.00">AppModule</text>
</g>
<!-- AppComponent&#45;&gt;AppModule -->
<g id="edge1" class="edge">
<title>AppComponent&#45;&gt;AppModule</title>
<path fill="none" stroke="black" d="M77,-122.29C77,-144.21 77,-178 77,-178 77,-178 417.05,-178 417.05,-178"/>
<polygon fill="black" stroke="black" points="417.05,-181.5 427.05,-178 417.05,-174.5 417.05,-181.5"/>
</g>
<!-- AppComponent  -->
<g id="node10" class="node">
<title>AppComponent </title>
<polygon fill="#80b1d3" stroke="black" points="523.44,-252 414.56,-252 414.56,-216 523.44,-216 523.44,-252"/>
<text text-anchor="middle" x="469" y="-229.8" font-family="Times,serif" font-size="14.00">AppComponent </text>
</g>
<!-- AppModule&#45;&gt;AppComponent  -->
<g id="edge9" class="edge">
<title>AppModule&#45;&gt;AppComponent </title>
<path fill="none" stroke="black" stroke-dasharray="1,5" d="M469,-187.11C469,-187.11 469,-205.99 469,-205.99"/>
<polygon fill="black" stroke="black" points="465.5,-205.99 469,-215.99 472.5,-205.99 465.5,-205.99"/>
</g>
<!-- AppRoutingModule -->
<g id="node3" class="node">
<title>AppRoutingModule</title>
<polygon fill="#8dd3c7" stroke="black" points="962.27,-122 959.27,-126 938.27,-126 935.27,-122 833.73,-122 833.73,-86 962.27,-86 962.27,-122"/>
<text text-anchor="middle" x="898" y="-99.8" font-family="Times,serif" font-size="14.00">AppRoutingModule</text>
</g>
<!-- AppRoutingModule&#45;&gt;AppModule -->
<g id="edge2" class="edge">
<title>AppRoutingModule&#45;&gt;AppModule</title>
<path fill="none" stroke="black" d="M898,-122.29C898,-144.21 898,-178 898,-178 898,-178 520.92,-178 520.92,-178"/>
<polygon fill="black" stroke="black" points="520.92,-174.5 510.92,-178 520.92,-181.5 520.92,-174.5"/>
</g>
<!-- AuthorModule -->
<g id="node4" class="node">
<title>AuthorModule</title>
<polygon fill="#8dd3c7" stroke="black" points="815.71,-122 812.71,-126 791.71,-126 788.71,-122 716.29,-122 716.29,-86 815.71,-86 815.71,-122"/>
<text text-anchor="middle" x="766" y="-99.8" font-family="Times,serif" font-size="14.00">AuthorModule</text>
</g>
<!-- AuthorModule&#45;&gt;AppModule -->
<g id="edge3" class="edge">
<title>AuthorModule&#45;&gt;AppModule</title>
<path fill="none" stroke="black" d="M766,-122.11C766,-141.34 766,-169 766,-169 766,-169 520.92,-169 520.92,-169"/>
<polygon fill="black" stroke="black" points="520.92,-165.5 510.92,-169 520.92,-172.5 520.92,-165.5"/>
</g>
<!-- CategoryModule -->
<g id="node5" class="node">
<title>CategoryModule</title>
<polygon fill="#8dd3c7" stroke="black" points="698.37,-122 695.37,-126 674.37,-126 671.37,-122 587.63,-122 587.63,-86 698.37,-86 698.37,-122"/>
<text text-anchor="middle" x="643" y="-99.8" font-family="Times,serif" font-size="14.00">CategoryModule</text>
</g>
<!-- CategoryModule&#45;&gt;AppModule -->
<g id="edge4" class="edge">
<title>CategoryModule&#45;&gt;AppModule</title>
<path fill="none" stroke="black" d="M643,-122.03C643,-138.4 643,-160 643,-160 643,-160 520.68,-160 520.68,-160"/>
<polygon fill="black" stroke="black" points="520.68,-156.5 510.68,-160 520.68,-163.5 520.68,-156.5"/>
</g>
<!-- ClientModule -->
<g id="node6" class="node">
<title>ClientModule</title>
<polygon fill="#8dd3c7" stroke="black" points="569.77,-122 566.77,-126 545.77,-126 542.77,-122 476.23,-122 476.23,-86 569.77,-86 569.77,-122"/>
<text text-anchor="middle" x="523" y="-99.8" font-family="Times,serif" font-size="14.00">ClientModule</text>
</g>
<!-- ClientModule&#45;&gt;AppModule -->
<g id="edge5" class="edge">
<title>ClientModule&#45;&gt;AppModule</title>
<path fill="none" stroke="black" d="M493.47,-122.11C493.47,-122.11 493.47,-140.99 493.47,-140.99"/>
<polygon fill="black" stroke="black" points="489.97,-140.99 493.47,-150.99 496.97,-140.99 489.97,-140.99"/>
</g>
<!-- CoreModule -->
<g id="node7" class="node">
<title>CoreModule</title>
<polygon fill="#8dd3c7" stroke="black" points="458.26,-122 455.26,-126 434.26,-126 431.26,-122 371.74,-122 371.74,-86 458.26,-86 458.26,-122"/>
<text text-anchor="middle" x="415" y="-99.8" font-family="Times,serif" font-size="14.00">CoreModule</text>
</g>
<!-- CoreModule&#45;&gt;AppModule -->
<g id="edge6" class="edge">
<title>CoreModule&#45;&gt;AppModule</title>
<path fill="none" stroke="black" d="M442.78,-122.11C442.78,-122.11 442.78,-140.99 442.78,-140.99"/>
<polygon fill="black" stroke="black" points="439.28,-140.99 442.78,-150.99 446.28,-140.99 439.28,-140.99"/>
</g>
<!-- GameModule -->
<g id="node8" class="node">
<title>GameModule</title>
<polygon fill="#8dd3c7" stroke="black" points="353.48,-122 350.48,-126 329.48,-126 326.48,-122 260.52,-122 260.52,-86 353.48,-86 353.48,-122"/>
<text text-anchor="middle" x="307" y="-99.8" font-family="Times,serif" font-size="14.00">GameModule</text>
</g>
<!-- GameModule&#45;&gt;AppModule -->
<g id="edge7" class="edge">
<title>GameModule&#45;&gt;AppModule</title>
<path fill="none" stroke="black" d="M307,-122.03C307,-138.4 307,-160 307,-160 307,-160 417.28,-160 417.28,-160"/>
<polygon fill="black" stroke="black" points="417.28,-163.5 427.28,-160 417.28,-156.5 417.28,-163.5"/>
</g>
<!-- LoanModule -->
<g id="node9" class="node">
<title>LoanModule</title>
<polygon fill="#8dd3c7" stroke="black" points="242.32,-122 239.32,-126 218.32,-126 215.32,-122 153.68,-122 153.68,-86 242.32,-86 242.32,-122"/>
<text text-anchor="middle" x="198" y="-99.8" font-family="Times,serif" font-size="14.00">LoanModule</text>
</g>
<!-- LoanModule&#45;&gt;AppModule -->
<g id="edge8" class="edge">
<title>LoanModule&#45;&gt;AppModule</title>
<path fill="none" stroke="black" d="M198,-122.11C198,-141.34 198,-169 198,-169 198,-169 417.25,-169 417.25,-169"/>
<polygon fill="black" stroke="black" points="417.25,-172.5 427.25,-169 417.25,-165.5 417.25,-172.5"/>
</g>
</g>
</svg>
