<?xml version="1.0" encoding="UTF-8" standalone="no"?>
<!DOCTYPE svg PUBLIC "-//W3C//DTD SVG 1.1//EN"
 "http://www.w3.org/Graphics/SVG/1.1/DTD/svg11.dtd">
<!-- Generated by graphviz version 2.47.0 (20210316.0004)
 -->
<!-- Title: dependencies Pages: 1 -->
<svg width="2535pt" height="360pt"
 viewBox="0.00 0.00 2535.00 360.00" xmlns="http://www.w3.org/2000/svg" xmlns:xlink="http://www.w3.org/1999/xlink">
<g id="graph0" class="graph" transform="scale(1 1) rotate(0) translate(4 356)">
<title>dependencies</title>
<polygon fill="white" stroke="transparent" points="-4,4 -4,-356 2531,-356 2531,4 -4,4"/>
<text text-anchor="start" x="1242.51" y="-42.4" font-family="Times-12" font-weight="bold" font-size="14.00">Legend</text>
<polygon fill="#ffffb3" stroke="transparent" points="1029.5,-10 1029.5,-30 1049.5,-30 1049.5,-10 1029.5,-10"/>
<text text-anchor="start" x="1053.13" y="-15.4" font-family="Times-12" font-size="14.00"> &#160;Declarations</text>
<polygon fill="#8dd3c7" stroke="transparent" points="1142.5,-10 1142.5,-30 1162.5,-30 1162.5,-10 1142.5,-10"/>
<text text-anchor="start" x="1166.23" y="-15.4" font-family="Times-12" font-size="14.00"> &#160;Module</text>
<polygon fill="#80b1d3" stroke="transparent" points="1228.5,-10 1228.5,-30 1248.5,-30 1248.5,-10 1228.5,-10"/>
<text text-anchor="start" x="1252.28" y="-15.4" font-family="Times-12" font-size="14.00"> &#160;Bootstrap</text>
<polygon fill="#fdb462" stroke="transparent" points="1325.5,-10 1325.5,-30 1345.5,-30 1345.5,-10 1325.5,-10"/>
<text text-anchor="start" x="1349.17" y="-15.4" font-family="Times-12" font-size="14.00"> &#160;Providers</text>
<polygon fill="#fb8072" stroke="transparent" points="1421.5,-10 1421.5,-30 1441.5,-30 1441.5,-10 1421.5,-10"/>
<text text-anchor="start" x="1445.23" y="-15.4" font-family="Times-12" font-size="14.00"> &#160;Exports</text>
<g id="clust1" class="cluster">
<title>cluster_AppModule</title>
<polygon fill="none" stroke="black" stroke-dasharray="1,5" points="917,-146 917,-344 1887,-344 1887,-146 917,-146"/>
</g>
<g id="clust2" class="cluster">
<title>cluster_AppModule_declarations</title>
<polygon fill="none" stroke="black" points="1757,-154 1757,-206 1879,-206 1879,-154 1757,-154"/>
</g>
<g id="clust4" class="cluster">
<title>cluster_AppModule_imports</title>
<polygon fill="none" stroke="black" points="925,-154 925,-206 1749,-206 1749,-154 925,-154"/>
</g>
<g id="clust6" class="cluster">
<title>cluster_AppModule_bootstrap</title>
<polygon fill="none" stroke="black" points="1067,-284 1067,-336 1191,-336 1191,-284 1067,-284"/>
</g>
<g id="clust14" class="cluster">
<title>cluster_AppServerModule</title>
<polygon fill="none" stroke="black" stroke-dasharray="1,5" points="773,-219 773,-271 909,-271 909,-219 773,-219"/>
</g>
<g id="clust20" class="cluster">
<title>cluster_AuthorModule</title>
<polygon fill="none" stroke="black" stroke-dasharray="1,5" points="532,-70 532,-138 869,-138 869,-70 532,-70"/>
</g>
<g id="clust21" class="cluster">
<title>cluster_AuthorModule_declarations</title>
<polygon fill="none" stroke="black" points="540,-78 540,-130 861,-130 861,-78 540,-78"/>
</g>
<g id="clust28" class="cluster">
<title>cluster_CategoryModule</title>
<polygon fill="none" stroke="black" stroke-dasharray="1,5" points="877,-70 877,-138 1237,-138 1237,-70 877,-70"/>
</g>
<g id="clust29" class="cluster">
<title>cluster_CategoryModule_declarations</title>
<polygon fill="none" stroke="black" points="885,-78 885,-130 1229,-130 1229,-78 885,-78"/>
</g>
<g id="clust36" class="cluster">
<title>cluster_ClientModule</title>
<polygon fill="none" stroke="black" stroke-dasharray="1,5" points="1245,-70 1245,-138 1705,-138 1705,-70 1245,-70"/>
</g>
<g id="clust37" class="cluster">
<title>cluster_ClientModule_declarations</title>
<polygon fill="none" stroke="black" points="1253,-78 1253,-130 1697,-130 1697,-78 1253,-78"/>
</g>
<g id="clust45" class="cluster">
<title>cluster_CoreModule</title>
<polygon fill="none" stroke="black" stroke-dasharray="1,5" points="8,-70 8,-138 524,-138 524,-70 8,-70"/>
</g>
<g id="clust46" class="cluster">
<title>cluster_CoreModule_declarations</title>
<polygon fill="none" stroke="black" points="166,-78 166,-130 516,-130 516,-78 166,-78"/>
</g>
<g id="clust50" class="cluster">
<title>cluster_CoreModule_exports</title>
<polygon fill="none" stroke="black" points="16,-78 16,-130 158,-130 158,-78 16,-78"/>
</g>
<g id="clust53" class="cluster">
<title>cluster_GameModule</title>
<polygon fill="none" stroke="black" stroke-dasharray="1,5" points="1713,-70 1713,-138 2195,-138 2195,-70 1713,-70"/>
</g>
<g id="clust54" class="cluster">
<title>cluster_GameModule_declarations</title>
<polygon fill="none" stroke="black" points="1721,-78 1721,-130 2187,-130 2187,-78 1721,-78"/>
</g>
<g id="clust62" class="cluster">
<title>cluster_LoanModule</title>
<polygon fill="none" stroke="black" stroke-dasharray="1,5" points="2203,-70 2203,-138 2519,-138 2519,-70 2203,-70"/>
</g>
<g id="clust63" class="cluster">
<title>cluster_LoanModule_declarations</title>
<polygon fill="none" stroke="black" points="2211,-78 2211,-130 2511,-130 2511,-78 2211,-78"/>
</g>
<!-- AppComponent -->
<g id="node1" class="node">
<title>AppComponent</title>
<polygon fill="#ffffb3" stroke="black" points="1870.94,-198 1765.06,-198 1765.06,-162 1870.94,-162 1870.94,-198"/>
<text text-anchor="middle" x="1818" y="-175.8" font-family="Times,serif" font-size="14.00">AppComponent</text>
</g>
<!-- AppModule -->
<g id="node2" class="node">
<title>AppModule</title>
<polygon fill="#8dd3c7" stroke="black" points="1311.66,-263 1308.66,-267 1287.66,-267 1284.66,-263 1228.34,-263 1228.34,-227 1311.66,-227 1311.66,-263"/>
<text text-anchor="middle" x="1270" y="-240.8" font-family="Times,serif" font-size="14.00">AppModule</text>
</g>
<!-- AppComponent&#45;&gt;AppModule -->
<g id="edge1" class="edge">
<title>AppComponent&#45;&gt;AppModule</title>
<path fill="none" stroke="black" d="M1818,-198.01C1818,-220.49 1818,-256 1818,-256 1818,-256 1322.09,-256 1322.09,-256"/>
<polygon fill="black" stroke="black" points="1322.09,-252.5 1312.09,-256 1322.09,-259.5 1322.09,-252.5"/>
</g>
<!-- AppComponent  -->
<g id="node10" class="node">
<title>AppComponent </title>
<polygon fill="#80b1d3" stroke="black" points="1183.44,-328 1074.56,-328 1074.56,-292 1183.44,-292 1183.44,-328"/>
<text text-anchor="middle" x="1129" y="-305.8" font-family="Times,serif" font-size="14.00">AppComponent </text>
</g>
<!-- AppModule&#45;&gt;AppComponent  -->
<g id="edge9" class="edge">
<title>AppModule&#45;&gt;AppComponent </title>
<path fill="none" stroke="black" stroke-dasharray="1,5" d="M1228.05,-257C1200.31,-257 1169.02,-257 1169.02,-257 1169.02,-257 1169.02,-281.76 1169.02,-281.76"/>
<polygon fill="black" stroke="black" points="1165.52,-281.76 1169.02,-291.76 1172.52,-281.76 1165.52,-281.76"/>
</g>
<!-- AppServerModule -->
<g id="node11" class="node">
<title>AppServerModule</title>
<polygon fill="#8dd3c7" stroke="black" points="901.19,-263 898.19,-267 877.19,-267 874.19,-263 780.81,-263 780.81,-227 901.19,-227 901.19,-263"/>
<text text-anchor="middle" x="841" y="-240.8" font-family="Times,serif" font-size="14.00">AppServerModule</text>
</g>
<!-- AppModule&#45;&gt;AppServerModule -->
<g id="edge10" class="edge">
<title>AppModule&#45;&gt;AppServerModule</title>
<path fill="none" stroke="black" d="M1228.08,-245C1228.08,-245 911.19,-245 911.19,-245"/>
<polygon fill="black" stroke="black" points="911.19,-241.5 901.19,-245 911.19,-248.5 911.19,-241.5"/>
</g>
<!-- AppRoutingModule -->
<g id="node3" class="node">
<title>AppRoutingModule</title>
<polygon fill="#8dd3c7" stroke="black" points="1741.27,-198 1738.27,-202 1717.27,-202 1714.27,-198 1612.73,-198 1612.73,-162 1741.27,-162 1741.27,-198"/>
<text text-anchor="middle" x="1677" y="-175.8" font-family="Times,serif" font-size="14.00">AppRoutingModule</text>
</g>
<!-- AppRoutingModule&#45;&gt;AppModule -->
<g id="edge2" class="edge">
<title>AppRoutingModule&#45;&gt;AppModule</title>
<path fill="none" stroke="black" d="M1677,-198.13C1677,-218.57 1677,-249 1677,-249 1677,-249 1322.02,-249 1322.02,-249"/>
<polygon fill="black" stroke="black" points="1322.02,-245.5 1312.02,-249 1322.02,-252.5 1322.02,-245.5"/>
</g>
<!-- AuthorModule -->
<g id="node4" class="node">
<title>AuthorModule</title>
<polygon fill="#8dd3c7" stroke="black" points="1136.71,-198 1133.71,-202 1112.71,-202 1109.71,-198 1037.29,-198 1037.29,-162 1136.71,-162 1136.71,-198"/>
<text text-anchor="middle" x="1087" y="-175.8" font-family="Times,serif" font-size="14.00">AuthorModule</text>
</g>
<!-- AuthorModule&#45;&gt;AppModule -->
<g id="edge3" class="edge">
<title>AuthorModule&#45;&gt;AppModule</title>
<path fill="none" stroke="black" d="M1115.91,-198.24C1115.91,-213.57 1115.91,-233 1115.91,-233 1115.91,-233 1218.3,-233 1218.3,-233"/>
<polygon fill="black" stroke="black" points="1218.3,-236.5 1228.3,-233 1218.3,-229.5 1218.3,-236.5"/>
</g>
<!-- CategoryModule -->
<g id="node5" class="node">
<title>CategoryModule</title>
<polygon fill="#8dd3c7" stroke="black" points="1265.37,-198 1262.37,-202 1241.37,-202 1238.37,-198 1154.63,-198 1154.63,-162 1265.37,-162 1265.37,-198"/>
<text text-anchor="middle" x="1210" y="-175.8" font-family="Times,serif" font-size="14.00">CategoryModule</text>
</g>
<!-- CategoryModule&#45;&gt;AppModule -->
<g id="edge4" class="edge">
<title>CategoryModule&#45;&gt;AppModule</title>
<path fill="none" stroke="black" d="M1246.8,-198.11C1246.8,-198.11 1246.8,-216.99 1246.8,-216.99"/>
<polygon fill="black" stroke="black" points="1243.3,-216.99 1246.8,-226.99 1250.3,-216.99 1243.3,-216.99"/>
</g>
<!-- ClientModule -->
<g id="node6" class="node">
<title>ClientModule</title>
<polygon fill="#8dd3c7" stroke="black" points="1376.77,-198 1373.77,-202 1352.77,-202 1349.77,-198 1283.23,-198 1283.23,-162 1376.77,-162 1376.77,-198"/>
<text text-anchor="middle" x="1330" y="-175.8" font-family="Times,serif" font-size="14.00">ClientModule</text>
</g>
<!-- ClientModule&#45;&gt;AppModule -->
<g id="edge5" class="edge">
<title>ClientModule&#45;&gt;AppModule</title>
<path fill="none" stroke="black" d="M1297.47,-198.11C1297.47,-198.11 1297.47,-216.99 1297.47,-216.99"/>
<polygon fill="black" stroke="black" points="1293.97,-216.99 1297.47,-226.99 1300.97,-216.99 1293.97,-216.99"/>
</g>
<!-- CoreModule -->
<g id="node7" class="node">
<title>CoreModule</title>
<polygon fill="#8dd3c7" stroke="black" points="1019.26,-198 1016.26,-202 995.26,-202 992.26,-198 932.74,-198 932.74,-162 1019.26,-162 1019.26,-198"/>
<text text-anchor="middle" x="976" y="-175.8" font-family="Times,serif" font-size="14.00">CoreModule</text>
</g>
<!-- CoreModule&#45;&gt;AppModule -->
<g id="edge6" class="edge">
<title>CoreModule&#45;&gt;AppModule</title>
<path fill="none" stroke="black" d="M976,-198.02C976,-215.37 976,-239 976,-239 976,-239 1218.19,-239 1218.19,-239"/>
<polygon fill="black" stroke="black" points="1218.19,-242.5 1228.19,-239 1218.19,-235.5 1218.19,-242.5"/>
</g>
<!-- HeaderComponent  -->
<g id="node21" class="node">
<title>HeaderComponent </title>
<polygon fill="#fb8072" stroke="black" points="149.74,-122 24.26,-122 24.26,-86 149.74,-86 149.74,-122"/>
<text text-anchor="middle" x="87" y="-99.8" font-family="Times,serif" font-size="14.00">HeaderComponent </text>
</g>
<!-- CoreModule&#45;&gt;HeaderComponent  -->
<g id="edge21" class="edge">
<title>CoreModule&#45;&gt;HeaderComponent </title>
<path fill="none" stroke="black" stroke-dasharray="5,2" d="M932.52,-189C754.04,-189 87,-189 87,-189 87,-189 87,-132.03 87,-132.03"/>
<polygon fill="black" stroke="black" points="90.5,-132.03 87,-122.03 83.5,-132.03 90.5,-132.03"/>
</g>
<!-- GameModule -->
<g id="node8" class="node">
<title>GameModule</title>
<polygon fill="#8dd3c7" stroke="black" points="1487.48,-198 1484.48,-202 1463.48,-202 1460.48,-198 1394.52,-198 1394.52,-162 1487.48,-162 1487.48,-198"/>
<text text-anchor="middle" x="1441" y="-175.8" font-family="Times,serif" font-size="14.00">GameModule</text>
</g>
<!-- GameModule&#45;&gt;AppModule -->
<g id="edge7" class="edge">
<title>GameModule&#45;&gt;AppModule</title>
<path fill="none" stroke="black" d="M1441,-198.01C1441,-214.05 1441,-235 1441,-235 1441,-235 1321.83,-235 1321.83,-235"/>
<polygon fill="black" stroke="black" points="1321.83,-231.5 1311.83,-235 1321.83,-238.5 1321.83,-231.5"/>
</g>
<!-- LoanModule -->
<g id="node9" class="node">
<title>LoanModule</title>
<polygon fill="#8dd3c7" stroke="black" points="1594.32,-198 1591.32,-202 1570.32,-202 1567.32,-198 1505.68,-198 1505.68,-162 1594.32,-162 1594.32,-198"/>
<text text-anchor="middle" x="1550" y="-175.8" font-family="Times,serif" font-size="14.00">LoanModule</text>
</g>
<!-- LoanModule&#45;&gt;AppModule -->
<g id="edge8" class="edge">
<title>LoanModule&#45;&gt;AppModule</title>
<path fill="none" stroke="black" d="M1550,-198.27C1550,-216.56 1550,-242 1550,-242 1550,-242 1321.92,-242 1321.92,-242"/>
<polygon fill="black" stroke="black" points="1321.92,-238.5 1311.92,-242 1321.92,-245.5 1321.92,-238.5"/>
</g>
<!-- AppServerModule&#45;&gt;AppComponent  -->
<g id="edge11" class="edge">
<title>AppServerModule&#45;&gt;AppComponent </title>
<path fill="none" stroke="black" stroke-dasharray="1,5" d="M901.25,-251C976.42,-251 1095.22,-251 1095.22,-251 1095.22,-251 1095.22,-281.98 1095.22,-281.98"/>
<polygon fill="black" stroke="black" points="1091.72,-281.98 1095.22,-291.98 1098.72,-281.98 1091.72,-281.98"/>
</g>
<!-- AuthorEditComponent -->
<g id="node12" class="node">
<title>AuthorEditComponent</title>
<polygon fill="#ffffb3" stroke="black" points="853.32,-122 708.68,-122 708.68,-86 853.32,-86 853.32,-122"/>
<text text-anchor="middle" x="781" y="-99.8" font-family="Times,serif" font-size="14.00">AuthorEditComponent</text>
</g>
<!-- AuthorEditComponent&#45;&gt;AuthorModule -->
<g id="edge12" class="edge">
<title>AuthorEditComponent&#45;&gt;AuthorModule</title>
<path fill="none" stroke="black" d="M817.03,-122.06C817.03,-126.49 817.03,-130 817.03,-130 817.03,-130 1042.31,-130 1042.31,-130 1042.31,-130 1042.31,-151.95 1042.31,-151.95"/>
<polygon fill="black" stroke="black" points="1038.81,-151.95 1042.31,-161.95 1045.81,-151.95 1038.81,-151.95"/>
</g>
<!-- AuthorListComponent -->
<g id="node13" class="node">
<title>AuthorListComponent</title>
<polygon fill="#ffffb3" stroke="black" points="690.27,-122 547.73,-122 547.73,-86 690.27,-86 690.27,-122"/>
<text text-anchor="middle" x="619" y="-99.8" font-family="Times,serif" font-size="14.00">AuthorListComponent</text>
</g>
<!-- AuthorListComponent&#45;&gt;AuthorModule -->
<g id="edge13" class="edge">
<title>AuthorListComponent&#45;&gt;AuthorModule</title>
<path fill="none" stroke="black" d="M619,-122.2C619,-128.03 619,-133 619,-133 619,-133 1039.85,-133 1039.85,-133 1039.85,-133 1039.85,-151.96 1039.85,-151.96"/>
<polygon fill="black" stroke="black" points="1036.35,-151.96 1039.85,-161.96 1043.35,-151.96 1036.35,-151.96"/>
</g>
<!-- CategoryEditComponent -->
<g id="node14" class="node">
<title>CategoryEditComponent</title>
<polygon fill="#ffffb3" stroke="black" points="1220.98,-122 1065.02,-122 1065.02,-86 1220.98,-86 1220.98,-122"/>
<text text-anchor="middle" x="1143" y="-99.8" font-family="Times,serif" font-size="14.00">CategoryEditComponent</text>
</g>
<!-- CategoryEditComponent&#45;&gt;CategoryModule -->
<g id="edge14" class="edge">
<title>CategoryEditComponent&#45;&gt;CategoryModule</title>
<path fill="none" stroke="black" d="M1198.85,-122.01C1198.85,-122.01 1198.85,-151.85 1198.85,-151.85"/>
<polygon fill="black" stroke="black" points="1195.35,-151.85 1198.85,-161.85 1202.35,-151.85 1195.35,-151.85"/>
</g>
<!-- CategoryListComponent -->
<g id="node15" class="node">
<title>CategoryListComponent</title>
<polygon fill="#ffffb3" stroke="black" points="1047.43,-122 892.57,-122 892.57,-86 1047.43,-86 1047.43,-122"/>
<text text-anchor="middle" x="970" y="-99.8" font-family="Times,serif" font-size="14.00">CategoryListComponent</text>
</g>
<!-- CategoryListComponent&#45;&gt;CategoryModule -->
<g id="edge15" class="edge">
<title>CategoryListComponent&#45;&gt;CategoryModule</title>
<path fill="none" stroke="black" d="M1044.76,-122.17C1044.76,-124.45 1044.76,-126 1044.76,-126 1044.76,-126 1176.71,-126 1176.71,-126 1176.71,-126 1176.71,-151.72 1176.71,-151.72"/>
<polygon fill="black" stroke="black" points="1173.21,-151.72 1176.71,-161.72 1180.21,-151.72 1173.21,-151.72"/>
</g>
<!-- ClientComponent -->
<g id="node16" class="node">
<title>ClientComponent</title>
<polygon fill="#ffffb3" stroke="black" points="1688.56,-122 1573.44,-122 1573.44,-86 1688.56,-86 1688.56,-122"/>
<text text-anchor="middle" x="1631" y="-99.8" font-family="Times,serif" font-size="14.00">ClientComponent</text>
</g>
<!-- ClientComponent&#45;&gt;ClientModule -->
<g id="edge16" class="edge">
<title>ClientComponent&#45;&gt;ClientModule</title>
<path fill="none" stroke="black" d="M1578.46,-122.07C1578.46,-131.46 1578.46,-141 1578.46,-141 1578.46,-141 1353.44,-141 1353.44,-141 1353.44,-141 1353.44,-151.87 1353.44,-151.87"/>
<polygon fill="black" stroke="black" points="1349.94,-151.87 1353.44,-161.87 1356.94,-151.87 1349.94,-151.87"/>
</g>
<!-- ClientEditComponent -->
<g id="node17" class="node">
<title>ClientEditComponent</title>
<polygon fill="#ffffb3" stroke="black" points="1555.39,-122 1416.61,-122 1416.61,-86 1555.39,-86 1555.39,-122"/>
<text text-anchor="middle" x="1486" y="-99.8" font-family="Times,serif" font-size="14.00">ClientEditComponent</text>
</g>
<!-- ClientEditComponent&#45;&gt;ClientModule -->
<g id="edge17" class="edge">
<title>ClientEditComponent&#45;&gt;ClientModule</title>
<path fill="none" stroke="black" d="M1430.74,-122.04C1430.74,-129.75 1430.74,-137 1430.74,-137 1430.74,-137 1330,-137 1330,-137 1330,-137 1330,-151.51 1330,-151.51"/>
<polygon fill="black" stroke="black" points="1326.5,-151.51 1330,-161.51 1333.5,-151.51 1326.5,-151.51"/>
</g>
<!-- ClientListComponent -->
<g id="node18" class="node">
<title>ClientListComponent</title>
<polygon fill="#ffffb3" stroke="black" points="1398.83,-122 1261.17,-122 1261.17,-86 1398.83,-86 1398.83,-122"/>
<text text-anchor="middle" x="1330" y="-99.8" font-family="Times,serif" font-size="14.00">ClientListComponent</text>
</g>
<!-- ClientListComponent&#45;&gt;ClientModule -->
<g id="edge18" class="edge">
<title>ClientListComponent&#45;&gt;ClientModule</title>
<path fill="none" stroke="black" d="M1306.56,-122.01C1306.56,-122.01 1306.56,-151.85 1306.56,-151.85"/>
<polygon fill="black" stroke="black" points="1303.06,-151.85 1306.56,-161.85 1310.06,-151.85 1303.06,-151.85"/>
</g>
<!-- DialogConfirmationComponent -->
<g id="node19" class="node">
<title>DialogConfirmationComponent</title>
<polygon fill="#ffffb3" stroke="black" points="508.37,-122 313.63,-122 313.63,-86 508.37,-86 508.37,-122"/>
<text text-anchor="middle" x="411" y="-99.8" font-family="Times,serif" font-size="14.00">DialogConfirmationComponent</text>
</g>
<!-- DialogConfirmationComponent&#45;&gt;CoreModule -->
<g id="edge19" class="edge">
<title>DialogConfirmationComponent&#45;&gt;CoreModule</title>
<path fill="none" stroke="black" d="M411,-122.31C411,-142.15 411,-171 411,-171 411,-171 922.6,-171 922.6,-171"/>
<polygon fill="black" stroke="black" points="922.6,-174.5 932.6,-171 922.6,-167.5 922.6,-174.5"/>
</g>
<!-- HeaderComponent -->
<g id="node20" class="node">
<title>HeaderComponent</title>
<polygon fill="#ffffb3" stroke="black" points="295.74,-122 174.26,-122 174.26,-86 295.74,-86 295.74,-122"/>
<text text-anchor="middle" x="235" y="-99.8" font-family="Times,serif" font-size="14.00">HeaderComponent</text>
</g>
<!-- HeaderComponent&#45;&gt;CoreModule -->
<g id="edge20" class="edge">
<title>HeaderComponent&#45;&gt;CoreModule</title>
<path fill="none" stroke="black" d="M235,-122.01C235,-144.49 235,-180 235,-180 235,-180 922.69,-180 922.69,-180"/>
<polygon fill="black" stroke="black" points="922.69,-183.5 932.69,-180 922.69,-176.5 922.69,-183.5"/>
</g>
<!-- GameEditComponent -->
<g id="node22" class="node">
<title>GameEditComponent</title>
<polygon fill="#ffffb3" stroke="black" points="2179.09,-122 2040.91,-122 2040.91,-86 2179.09,-86 2179.09,-122"/>
<text text-anchor="middle" x="2110" y="-99.8" font-family="Times,serif" font-size="14.00">GameEditComponent</text>
</g>
<!-- GameEditComponent&#45;&gt;GameModule -->
<g id="edge22" class="edge">
<title>GameEditComponent&#45;&gt;GameModule</title>
<path fill="none" stroke="black" d="M2110,-122.15C2110,-135.74 2110,-152 2110,-152 2110,-152 1473.3,-152 1473.3,-152 1473.3,-152 1473.3,-152.98 1473.3,-152.98"/>
<polygon fill="black" stroke="black" points="1469.8,-151.79 1473.3,-161.79 1476.8,-151.79 1469.8,-151.79"/>
</g>
<!-- GameItemComponent -->
<g id="node23" class="node">
<title>GameItemComponent</title>
<polygon fill="#ffffb3" stroke="black" points="2023.42,-122 1882.58,-122 1882.58,-86 2023.42,-86 2023.42,-122"/>
<text text-anchor="middle" x="1953" y="-99.8" font-family="Times,serif" font-size="14.00">GameItemComponent</text>
</g>
<!-- GameItemComponent&#45;&gt;GameModule -->
<g id="edge23" class="edge">
<title>GameItemComponent&#45;&gt;GameModule</title>
<path fill="none" stroke="black" d="M1953,-122.15C1953,-134.27 1953,-148 1953,-148 1953,-148 1459.12,-148 1459.12,-148 1459.12,-148 1459.12,-151.76 1459.12,-151.76"/>
<polygon fill="black" stroke="black" points="1455.62,-151.76 1459.12,-161.76 1462.62,-151.76 1455.62,-151.76"/>
</g>
<!-- GameListComponent -->
<g id="node24" class="node">
<title>GameListComponent</title>
<polygon fill="#ffffb3" stroke="black" points="1865.04,-122 1728.96,-122 1728.96,-86 1865.04,-86 1865.04,-122"/>
<text text-anchor="middle" x="1797" y="-99.8" font-family="Times,serif" font-size="14.00">GameListComponent</text>
</g>
<!-- GameListComponent&#45;&gt;GameModule -->
<g id="edge24" class="edge">
<title>GameListComponent&#45;&gt;GameModule</title>
<path fill="none" stroke="black" d="M1735.06,-122.13C1735.06,-132.71 1735.06,-144 1735.06,-144 1735.06,-144 1444.93,-144 1444.93,-144 1444.93,-144 1444.93,-151.58 1444.93,-151.58"/>
<polygon fill="black" stroke="black" points="1441.43,-151.58 1444.93,-161.58 1448.43,-151.58 1441.43,-151.58"/>
</g>
<!-- LoanEditComponent -->
<g id="node25" class="node">
<title>LoanEditComponent</title>
<polygon fill="#ffffb3" stroke="black" points="2502.93,-122 2369.07,-122 2369.07,-86 2502.93,-86 2502.93,-122"/>
<text text-anchor="middle" x="2436" y="-99.8" font-family="Times,serif" font-size="14.00">LoanEditComponent</text>
</g>
<!-- LoanEditComponent&#45;&gt;LoanModule -->
<g id="edge25" class="edge">
<title>LoanEditComponent&#45;&gt;LoanModule</title>
<path fill="none" stroke="black" d="M2436,-122.01C2436,-138.05 2436,-159 2436,-159 2436,-159 1588.92,-159 1588.92,-159 1588.92,-159 1588.92,-159.29 1588.92,-159.29"/>
<polygon fill="black" stroke="black" points="1585.42,-151.92 1588.92,-161.92 1592.42,-151.92 1585.42,-151.92"/>
</g>
<!-- LoanListComponent -->
<g id="node26" class="node">
<title>LoanListComponent</title>
<polygon fill="#ffffb3" stroke="black" points="2350.88,-122 2219.12,-122 2219.12,-86 2350.88,-86 2350.88,-122"/>
<text text-anchor="middle" x="2285" y="-99.8" font-family="Times,serif" font-size="14.00">LoanListComponent</text>
</g>
<!-- LoanListComponent&#45;&gt;LoanModule -->
<g id="edge26" class="edge">
<title>LoanListComponent&#45;&gt;LoanModule</title>
<path fill="none" stroke="black" d="M2285,-122.12C2285,-136.78 2285,-155 2285,-155 2285,-155 1583.69,-155 1583.69,-155 1583.69,-155 1583.69,-155.68 1583.69,-155.68"/>
<polygon fill="black" stroke="black" points="1580.19,-151.83 1583.69,-161.83 1587.19,-151.83 1580.19,-151.83"/>
</g>
</g>
</svg>
